<svg xmlns="http://www.w3.org/2000/svg" width="162.572" height="146.734" viewBox="0 0 162.572 146.734">
  <g id="asset" transform="translate(-1276 -1050)">
    <path id="합치기_1" data-name="합치기 1" d="M4.536,17.5a34.358,34.358,0,0,0-3.221,6.085,22.564,22.564,0,0,0-.633,13.19,51.319,51.319,0,0,0,2,6.619,30.239,30.239,0,0,0,3.2,6.439c.057.084.114.167.171.25a1.608,1.608,0,0,0,.556.777c2.882,3.881,6.7,6.9,10.54,9.81,4.012,3.043,8.026,6.085,12.133,9,6.089,4.324,12.842,8.963,20.449,9.3a13.745,13.745,0,0,0,6.353,1.453c8.89-.124,16.976-6.139,21.112-13.772C81.21,59.242,81.8,50.374,79.9,42.249,77.744,33,72.507,24.732,66.27,17.689q-.585-.66-1.186-1.309a41.427,41.427,0,0,0-5.339-6.564A30.636,30.636,0,0,0,48.15,2.429,29.281,29.281,0,0,0,40.779.977,32.528,32.528,0,0,0,20.01,2.6,31.806,31.806,0,0,0,8.836,11.581,61.138,61.138,0,0,0,4.536,17.5ZM65.379,29.123l.083.007.005,0Zm-11.558-.758.02-.007-.164.106Zm6.02,30.587-.209.131.278-.205.236-.141-.3.212ZM65.5,29.134h0l.109.007ZM68.515,32.8a3.278,3.278,0,0,0,.192-.329q.139.188.275.38A1.794,1.794,0,0,0,68.515,32.8Z" transform="translate(1357.059 1074.572)" fill="#99cca7" stroke="rgba(0,0,0,0)" stroke-width="1" style="mix-blend-mode: multiply;isolation: isolate"/>
    <g id="그룹_161" data-name="그룹 161" transform="translate(947.291 1040.945)">
      <path id="패스_353" data-name="패스 353" d="M383.587,115.51a3.879,3.879,0,0,0-.282,1.113,1.116,1.116,0,0,0,.007.265l.037,0c.6-.087,1.381-1.246,2.288-2.59,1.23-1.824,2.761-4.1,4.975-5.2,1.214-.608,2.412-2.4,3.464-5.171.241-.636.477-1.333.7-2.074l-.368-.409c-.9,1.9-3.677,7.372-6.766,9.2A10.5,10.5,0,0,0,383.587,115.51Z" fill="none"/>
      <path id="패스_354" data-name="패스 354" d="M357.92,140.245c-6.359,3.789-23.187,13.814-23.383,15a.218.218,0,0,0,.047.005c1.289,0,13.316-7.887,25.978-16.584-.665.4-1.55.927-2.616,1.56Z" fill="none"/>
      <path id="패스_355" data-name="패스 355" d="M355.409,122.543l-.032-.049-.032-.048,0,0a.152.152,0,0,1-.013-.029c-.1-.139-.265-.38-.535-.786a157.632,157.632,0,0,1-8.7-15c-2.853-5.564-4.836-10.236-5.054-11.9-.019-.147-.04-.272-.063-.377-.086.723-.079,2.491,1.168,5.638a125.091,125.091,0,0,0,7.327,14.586,90.378,90.378,0,0,0,8.005,11.915c2.928,3.486,4.537,5.786,5.217,7.461.608,1.493.539,2.578-.239,3.415q1.016-.7,2.032-1.4a13.271,13.271,0,0,1-.377-2.313C361.114,131.109,358.719,127.513,355.409,122.543Z" fill="none"/>
      <path id="패스_356" data-name="패스 356" d="M441.484,126.262a8.416,8.416,0,0,0,3.959.182,13.56,13.56,0,0,0-2.554-.28A6.752,6.752,0,0,0,441.484,126.262Z" fill="none"/>
      <path id="패스_357" data-name="패스 357" d="M444.908,122.087c-.412.032-.773.075-1.068.127a15.762,15.762,0,0,0,4.039.213,16.788,16.788,0,0,0,1.725-.175A22.485,22.485,0,0,0,444.908,122.087Z" fill="none"/>
      <path id="패스_358" data-name="패스 358" d="M387.052,70.912a4.531,4.531,0,0,0-1.323-.124,2.194,2.194,0,0,0-.869.195l-.048.027a8.1,8.1,0,0,1-.553,1.79c-.84,2.245-2.4,6.421-1.817,11.192.812,6.626,1.611,11.027,1.618,11.061a.58.58,0,0,1-.463.672.588.588,0,0,1-.309-.031v.088l-.217-.234a26.36,26.36,0,0,1-6.24-15.522,69.226,69.226,0,0,0-1.28-9.94c-.675-3.665-1.2-6.54-.533-9.365.561-2.362.425-3.346.294-3.723-.011-.032-.022-.058-.031-.079a1.506,1.506,0,0,0-.335.5c-.717,1.493-1.118,8.5-1.162,9.3a.586.586,0,0,1-.187.421.566.566,0,0,1-.417.149.574.574,0,0,1-.3-.1c-.031-.022-3.2-2.247-6.807-5.309a15.413,15.413,0,0,1-4.04-5.133c-.659,1.331-1.606,3.488-1.446,4.613.155,1.087,2.165,7.915,3.909,13.283,2.131,6.557,2.6,7.3,2.69,7.372.882.632,7.786,3.289,7.855,3.315a.577.577,0,0,1,.356.661l.005.005-.029.078c-1.084,2.768-2.976,8.726-1.9,9.47a40.462,40.462,0,0,0,3.62,1.849c3.5,1.682,8.231,3.952,9.8,5.718,0-.035,0-.071-.007-.107a13.159,13.159,0,0,0-.244-1.7c-.666.066-1.271-.335-1.807-1.187a8.193,8.193,0,0,1-1.18-2.962,1.5,1.5,0,0,1,.082-.793.767.767,0,0,1,.909-.466,2.669,2.669,0,0,1,1.214.8,7.506,7.506,0,0,1,1.541,2.98,13.737,13.737,0,0,0,2.229-3.065c.17-.288.319-.539.469-.789l.105-.178c2.176-3.649,5.464-9.164,4.04-11.353-.727-1.119-2.37-2.021-3.819-2.816-2.043-1.119-3.8-2.079-3.279-3.632.447-1.346,2.359-2.251,4.049-2.895a5.835,5.835,0,0,1-2.09-2.395A2.734,2.734,0,0,0,387.052,70.912Z" fill="none"/>
      <path id="패스_359" data-name="패스 359" d="M436.836,60.892l-3.712,1.671a.57.57,0,0,1-.608-.085c-.1-.08-10.208-8.128-12.03-8.188l-.1,0A2.667,2.667,0,0,0,418.1,55.55a.573.573,0,0,1-.783.223.513.513,0,0,1-.1-.073l-.122-.1c-2.544-2.131-3.358-2.8-3.592-2.989-.025.027-.05.051-.075.076l-.023.023a1.059,1.059,0,0,0-.075.081c-.04.052-.061.313,1.373,1.419A18.685,18.685,0,0,0,417.284,56c.335.165.544.21.608.131.041-.05.088-.113.138-.179a2.688,2.688,0,0,1,2.109-1.37,3.58,3.58,0,0,1,1.811.6,53.814,53.814,0,0,1,5.563,4.061c2.117,1.723,4.309,3.661,6.515,5.76a33.971,33.971,0,0,0,7.721,5.482,19.362,19.362,0,0,0,3.962,1.6,6.543,6.543,0,0,0-1.206-3.775C442.807,66.442,438.284,62.232,436.836,60.892Z" fill="none"/>
      <path id="패스_360" data-name="패스 360" d="M412.756,129.162c-.421-1.862-.819-3.622-.941-4.528a14.837,14.837,0,0,1-.043-2.773c.014-.255.027-.491.033-.7a27.8,27.8,0,0,0,0,4.469,42.251,42.251,0,0,0,1.031,7.614,3.345,3.345,0,0,0,.409,1.045c.061.081.22.169.619.169h.068c-.286-1.336-.713-3.234-1.165-5.227Z" fill="none"/>
      <path id="패스_361" data-name="패스 361" d="M404.967,47.924a6.563,6.563,0,0,0,2.407-4.473,8.715,8.715,0,0,0-.968-5.589c-1.588-2.79-4.923-3.636-6.451-3.882a21.706,21.706,0,0,1,.015,4.251c-.276,3.506-5.942,5.544-11.421,7.516-.47.169-.933.336-1.543.558a7.815,7.815,0,0,0-1.566.8,16.026,16.026,0,0,0-5.341,6.7c-1.314,2.955-1.632,5.84-.873,7.917a5.461,5.461,0,0,0,.553,1.108c1.515,2.3,4.35,4.055,6.462,5.119,3.6,1.818,7.351,2.789,8.285,2.438,1.116-.414,4.425-5.632,7.171-10.414l-4.455-3.526a.575.575,0,0,1-.142-.809l4.348-6.075.015.015a.576.576,0,0,1,.758.02l3.125,2.889L405.73,52c-1.017-1.393-1.465-2.479-1.332-3.231A1.251,1.251,0,0,1,404.967,47.924Z" fill="none"/>
      <path id="패스_362" data-name="패스 362" d="M396.861,74.169a2.993,2.993,0,0,0-.558.171c-.7.294-1.548.578-2.449.878l-.169.057a51.561,51.561,0,0,0,5,2.619,22.1,22.1,0,0,1,.36-3.568A4.389,4.389,0,0,0,396.861,74.169Z" fill="none"/>
      <path id="패스_363" data-name="패스 363" d="M384.854,97.308a7.82,7.82,0,0,0,.953,2.179,1.447,1.447,0,0,0,.517.54,6.232,6.232,0,0,0-1.271-2.531C384.982,97.427,384.916,97.363,384.854,97.308Z" fill="none"/>
      <path id="패스_364" data-name="패스 364" d="M390.2,72.179a5.806,5.806,0,0,0,2.26,2.3c.254-.088.508-.173.759-.257l.271-.091c.89-.3,1.724-.576,2.368-.847a4.2,4.2,0,0,1,.777-.239,5.531,5.531,0,0,1,2.66.158,12.072,12.072,0,0,1,.944-2.531,28.025,28.025,0,0,1,5.461-6.338c-.234-.251-.463-.49-.679-.716-1.391-1.451-2.4-2.5-1.737-3.3a.758.758,0,0,1,.584-.269h.039c1.435,0,4.257,2.771,4.283,2.8a.575.575,0,0,1,.01.81.575.575,0,0,1-.071.061l-.037.033c-.117.1-.389.328-.762.657a20.424,20.424,0,0,1,2.165,2.842c1.821,2.961,11.472,6.02,13.623,6.671l4.72-6.653c-.793-.6-2.9-2.14-6.978-4.924-4.983-3.4-6.885-2.866-7.083-2.793a.577.577,0,0,1-.606-.081,58.643,58.643,0,0,1-6.707-6.532l-.59.759a.579.579,0,0,1-.808.1.542.542,0,0,1-.078-.072l-3.066-2.833-3.565,4.981,4.441,3.515a.573.573,0,0,1,.144.733c-.622,1.095-6.077,10.636-8.014,11.353-.907.339-3.6-.151-6.632-1.341A3.447,3.447,0,0,1,390.2,72.179Z" fill="none"/>
      <path id="패스_365" data-name="패스 365" d="M434.442,82.4A7.574,7.574,0,0,1,429.7,76.89h-3.313c-.079.5-.167,1.484.277,1.927.674.674-.166,1.517-.442,1.794-.394.39-.967.858-1.574,1.352L424.6,82c-1.431,1.159-3.389,2.746-3.086,3.5a.593.593,0,0,0,.366.336c1.16.45,4.35-.9,5.479-1.452a.575.575,0,0,1,.671.911c-1.2,1.389-3.394,4.292-3.055,5.311a4.269,4.269,0,0,0,.867,1.488,2.213,2.213,0,0,0,.777.574,1.069,1.069,0,0,0,.754.032,1.7,1.7,0,0,0,.593-.373,60.535,60.535,0,0,0,4.8-5.739.575.575,0,0,1,1.036.3c.207,2.453.524,3.861.718,3.947l.224.059c.8.214,2.94.783,3.37-.2a15.948,15.948,0,0,0,.7-4.449.57.57,0,0,1,.412-.541v-.022h.125c.013,0,2.124-.179,2.169-1.276a4.355,4.355,0,0,0-.672-2.027A9.621,9.621,0,0,1,434.442,82.4Z" fill="none"/>
      <path id="패스_366" data-name="패스 366" d="M441.186,115.733a34.69,34.69,0,0,0-3.511-.277c-.18-.006-.361-.008-.54-.008a27.9,27.9,0,0,0-7.326,1.131c1.9-.375,3.565-.672,4.573-.781A54.715,54.715,0,0,1,441.186,115.733Z" fill="none"/>
      <path id="패스_367" data-name="패스 367" d="M404.245,61.074c.193.272.849.958,1.537,1.677l.066.069c.224.234.461.481.705.742.125-.112.24-.212.342-.3l.034-.03A11.739,11.739,0,0,0,404.245,61.074Z" fill="none"/>
      <path id="패스_368" data-name="패스 368" d="M335.633,113.974c1.915-11.78,2.481-24.06,2.041-29.633a20.676,20.676,0,0,1,2.373-11.15,30.546,30.546,0,0,1,8.457-9.979,26.065,26.065,0,0,1,9.542-4.136.329.329,0,0,0,.234-.178l2.8-5.024a.326.326,0,0,0,.026-.257c-.164-.555-3.874-13.693,4.543-28.668,3.654-6.5,8.313-10.992,13.848-13.343a25.067,25.067,0,0,1,10.226-1.9c3.642,0,7.14,2.992,7.171,3.022a.328.328,0,0,0,.368.026c.461-.228,4.553-2.067,8.652,2.9,1.934,2.344,3.922,6.581,5.6,11.928a55.777,55.777,0,0,1,2.784,14.862c0,5.646-2.107,8.237-3.013,9.089l-.089.083-2.465-2.466a.331.331,0,0,0-.46,0,.246.246,0,0,0-.031.035l-1.9,2.436-.1-.127c-.822-1.065-1.18-1.831-1.1-2.34a.7.7,0,0,1,.314-.485,7.354,7.354,0,0,0,2.807-5.094,9.612,9.612,0,0,0-1.078-6.163c-2.185-3.84-7.268-4.374-7.856-4.423l-.049,0a.441.441,0,0,0-.11.011.324.324,0,0,0-.226.4l.005.033a15.592,15.592,0,0,1,.118,4.728c-.229,2.926-5.609,4.863-10.812,6.736-.588.211-1.154.416-1.558.563a8.555,8.555,0,0,0-1.753.9,16.919,16.919,0,0,0-5.668,7.09c-1.41,3.167-1.737,6.3-.9,8.588a6.283,6.283,0,0,0,.649,1.3c1.625,2.469,4.6,4.315,6.806,5.428,3.805,1.92,7.9,2.893,9,2.48,1.506-.557,5.661-7.323,7.878-11.232a.328.328,0,0,0-.075-.424l-4.628-3.664,3.867-5.4,3.285,3.035a.314.314,0,0,0,.052.049.324.324,0,0,0,.457-.058l.782-1.006.1.122a57.653,57.653,0,0,0,6.772,6.618.33.33,0,0,0,.351.043c.357-.131,2.339-.586,7.32,2.818,4.263,2.909,6.374,4.468,7.084,5l.1.073-4.964,7-.086-.025c-1.981-.6-11.955-3.727-13.85-6.806a20.5,20.5,0,0,0-2.221-2.9l-.084-.094.093-.083c.424-.375.734-.637.86-.744l.045-.038a.429.429,0,0,0,.047-.041.321.321,0,0,0,.09-.229.327.327,0,0,0-.1-.229c-.719-.716-2.991-2.726-4.1-2.726h-.042a.5.5,0,0,0-.389.179c-.519.627.421,1.608,1.722,2.966.245.255.5.525.77.81l.086.092-.094.086c-1.565,1.434-4.361,4.166-5.5,6.355a11.924,11.924,0,0,0-.957,2.6l-.032.129-.127-.04a5.344,5.344,0,0,0-2.66-.19,3.8,3.8,0,0,0-.73.225c-.653.275-1.492.554-2.38.851l-.277.093c-.271.091-.544.182-.818.276l-.06.021-.052-.036a6.094,6.094,0,0,1-2.407-2.461,3.587,3.587,0,0,0-2.7-2.219,5.38,5.38,0,0,0-1.583-.148,3.031,3.031,0,0,0-1.257.307.843.843,0,0,0-.51.739,7.2,7.2,0,0,1-.491,1.537c-.872,2.332-2.485,6.644-1.875,11.629.5,4.056,1,7.357,1.337,9.411l.084.513-.308-.419a25.388,25.388,0,0,1-4.931-13.619,70.154,70.154,0,0,0-1.3-10.088c-.652-3.54-1.164-6.33-.536-8.971.612-2.585.428-3.757.264-4.226a1.144,1.144,0,0,0-.439-.618.736.736,0,0,0-.7-.053,1.952,1.952,0,0,0-.887.995c-.666,1.39-1.063,6.649-1.2,8.846l-.015.227-.184-.134c-1.453-1.061-3.687-2.752-6.081-4.785-3.528-3-4.219-5.9-4.225-5.926a.327.327,0,0,0-.4-.232.322.322,0,0,0-.2.158c-.025.043-2.421,4.313-2.137,6.3.164,1.142,2.155,7.921,3.945,13.433,1.5,4.62,2.631,7.547,3.023,7.828A74.769,74.769,0,0,0,374.3,86l.114.044-.042.115c-1.57,4.278-2.767,9.181-1.415,10.116a39.444,39.444,0,0,0,3.743,1.919c3.73,1.791,8.837,4.244,9.76,5.825.259.444.472.588.6.63a.468.468,0,0,0,.394-.011.8.8,0,0,0,.3-.565,4.735,4.735,0,0,0,.028-1.138,14.036,14.036,0,0,0-.326-2.093l-.02-.086.075-.048a11.282,11.282,0,0,0,2.892-3.657l.571-.96c2.29-3.841,5.751-9.645,4.022-12.3-.853-1.316-2.6-2.275-4.146-3.121-1.685-.922-3.134-1.716-2.855-2.556.369-1.108,2.385-1.949,4.308-2.626l.058-.021.052.035a49.653,49.653,0,0,0,6.713,3.585.286.286,0,0,0,.144.027.325.325,0,0,0,.312-.337,20.9,20.9,0,0,1,.325-4.194l.03-.165.15.076c.111.057.222.119.333.184a7.927,7.927,0,0,1,3.22,3.857,11.272,11.272,0,0,1,.644,2.113A31.288,31.288,0,0,0,408.7,90c2.573,4.026,5.769,7.871,6.98,8.4,1.8.781,3.089-.091,4.87-1.3.393-.268.786-.532,1.247-.821a13.672,13.672,0,0,1,5.78-1.485,37.4,37.4,0,0,1,8.38.38c5.71.866,13.821,2.378,16.172,2.82l.128.025-.736,3.189a.325.325,0,0,0,.2.375L454.739,103a.328.328,0,0,0,.432-.157.321.321,0,0,0,.031-.112c.028-.328.651-7.985-2.955-13.995a19.458,19.458,0,0,0-9.374-8.124.329.329,0,0,0-.289.038,9.48,9.48,0,0,1-1.246.6l-.1.04-.055-.09c-.25-.406-.484-.743-.635-.955l-.08-.112,5.908-3.4a.328.328,0,0,0,.161-.244l.013-.1a25.348,25.348,0,0,0,.109-3.219l0-.127.127,0a1.42,1.42,0,0,0,.941-.271l.063-.059.1.03c.1.051.277.136-.168,4.746a.33.33,0,0,0,.229.364A26.611,26.611,0,0,1,461.639,88.8c5.316,8.508,5.1,28.861,5.092,29.059a.322.322,0,0,0,.244.313l5.286,1.4-.182.155-17.616,15.027-.065-.019L441.332,131l.5-.1c2.12-.428,5.793-1.353,6.571-2.743a.989.989,0,0,0,.077-.867,1.394,1.394,0,0,0-.129-.26l-.1-.152.236-.049c3.087-.688,5.7-1.77,6.213-2.574a1.008,1.008,0,0,0,.158-.456c.038-.471-.28-.9-.947-1.279a6.266,6.266,0,0,0-.805-.368l-.219-.085.192-.134c.108-.076.211-.156.307-.239a3.954,3.954,0,0,0,1.333-3.663c-.143-1.425-.309-2.475-1.162-3.031-.835-.543-2.247-.511-4.721.107a3.1,3.1,0,0,1-1.9.114.174.174,0,0,1-.073-.209,1.569,1.569,0,0,1,.428-.642,5.294,5.294,0,0,1,3.9-1.463,7.18,7.18,0,0,1,1.081.165,6.1,6.1,0,0,1,3.184,1.865,3.926,3.926,0,0,1,1.063,2.842,2.926,2.926,0,0,1-.074.479,15.964,15.964,0,0,1-.755,2.187l-.015.04c-.385.954-.717,1.777-.487,2.2.154.277.516.561,1.932-.21a4.084,4.084,0,0,0,1.21-1.024,6.522,6.522,0,0,0,1.325-3.764,8.4,8.4,0,0,0-1-4.419,7.863,7.863,0,0,0-1.961-2.359c-3.295-2.68-8.01-.193-9.882,1l-.217.138.026-.255.639-6.626.04-.032,3.1-2.588a.323.323,0,0,0,.084-.392l-1.619-3.641a.321.321,0,0,0-.543-.078l-.028.031-7.441,8.7-.064-.007-3.63-.331,2.123-2.64a.326.326,0,0,0-.05-.457.309.309,0,0,0-.246-.068c-.3.025-7.254.64-11.638-.667a34.794,34.794,0,0,1-8.247-3.826.326.326,0,0,0-.44.1.31.31,0,0,0-.053.18l-.2,4.109a.328.328,0,0,0,.21.321c.039.014,4.013,1.514,10.107,3.257,4.895,1.4,7.525,2.06,8.428,2.28l.105.025-.071.719-.132-.022c-3.4-.573-7.285-.644-7.993.877a11.944,11.944,0,0,0-.638,5.312.325.325,0,0,0,.324.292h.033a.243.243,0,0,0,.067-.016l.169-.063v.009a28.074,28.074,0,0,1,8.653-1.35,33.122,33.122,0,0,1,4.316.4,13.536,13.536,0,0,1,1.949.447l-.029.121.387-.093a.207.207,0,0,1,.141-.008l.214.079-.181.138a.313.313,0,0,1-.191.05h-1.068l.39-.093-.015,0a15.258,15.258,0,0,0-2.163-.251,57.011,57.011,0,0,0-7.024.055c-3.731.407-16.427,3.362-16.545,3.391a.326.326,0,0,0-.254.344c.036.926.161,4.148.338,7.567a17.9,17.9,0,0,1-.066,2.357,6.3,6.3,0,0,0,0,1.705,1.159,1.159,0,0,0,1,1.009,8.617,8.617,0,0,0,3.187-.3,63.977,63.977,0,0,1,12.227-1.037,20.63,20.63,0,0,1,2.4.151.859.859,0,0,0,.413-.041.589.589,0,0,1,.106-.025l.251-.017-.138.21c-.293.448-1.536.876-3.169,1.092a18.07,18.07,0,0,1-5.671-.226c-2.775-.527-6.676.556-9.808,1.427-1.428.4-2.771.772-3.771.95l-.127.022-.018-.128c-.223-1.535-.67-3.519-1.1-5.438l-.026-.116c-.413-1.83-.8-3.558-.921-4.425a14.15,14.15,0,0,1-.036-2.627,5.756,5.756,0,0,0-.038-1.626c-.152-.546-.446-.705-1.01-.551a.562.562,0,0,0-.185.1c-.5.381-.709,2.688-.528,5.878a43.156,43.156,0,0,0,1.064,7.8,4.269,4.269,0,0,0,.559,1.349c.282.371.838.524,1.724.467l.108-.007.022.107c.166.82.159.852.043.9-.494.2-13.436,1.356-24.7,1.62-7.357.169-12.6-.063-15.573-.691a20.6,20.6,0,0,1-9.133-4.023l-.043-.036,0-.056a14.651,14.651,0,0,1,1.688-7.458c1.467-2.8,4.44-4.923,6.828-6.625a15.27,15.27,0,0,0,2.958-2.421,1.506,1.506,0,0,0,.392-.957,1.131,1.131,0,0,0-.527-.827c-1.243-.953-3,.179-4.7,1.274a7.9,7.9,0,0,1-2.468,1.268.582.582,0,0,1-.548-.2,1.469,1.469,0,0,1-.28-.776,18.945,18.945,0,0,1,.245-4.273c.531-4.279,1.189-9.6-3.21-12.993-2.672-2.065-3.4-5.526-4.168-9.192-.9-4.29-1.834-8.726-6.01-11.262-5.12-3.109-5.131-3.311-5.139-3.458l0-.072.071-.065c.1-.071.242-.011.8.262a16.737,16.737,0,0,0,2.246.942c3.818,1.233,4.683,2.932,10.314,13.99L364.6,92.5a192.609,192.609,0,0,0,10.5,18.141c3.484,5.266,6.364,8.766,7.9,9.6a3.682,3.682,0,0,0,1.027.33c3.33.666,11.771.128,15.244-.135,6.313-.477,11.35-1.24,11.638-1.6a.317.317,0,0,0,.033-.1l.005-.028a.329.329,0,0,0-.259-.354.31.31,0,0,0-.31.107l-.046.055-.07-.013c-2.815-.5-12.472-.138-16.493.041l-.433.019,10.571-7.338a.324.324,0,0,0,.084-.452.328.328,0,0,0-.037-.045l-8.174-9.107.019-.066a33.557,33.557,0,0,0,1.35-7.648c0-.371.059-.586.186-.676.088-.065.226-.053.435.035a3.12,3.12,0,0,1,.915.689,14.641,14.641,0,0,1,3.362,8.64,4.917,4.917,0,0,0,.563,2.179,1,1,0,0,0,.993.514c.978-.083,2.191-1.53,3.364-2.93a12.257,12.257,0,0,1,2.394-2.448.587.587,0,0,1,.457-.1.41.41,0,0,1,.253.209c.682,1.192-.536,3.76-1.715,6.244-1.462,3.087-2.843,6-1,7.007A22.073,22.073,0,0,0,415.582,115c3.08.133,5.488-.287,6.608-1.143a.317.317,0,0,0,.126-.217.326.326,0,0,0-.277-.364.33.33,0,0,0-.244.064c-1.37,1.049-4.469,1.084-6.188,1.012a21.337,21.337,0,0,1-7.937-1.648c-1.305-.711-.053-3.353,1.273-6.151,1.254-2.646,2.543-5.367,1.7-6.853a1.091,1.091,0,0,0-.634-.568,1.271,1.271,0,0,0-.966.216,12.543,12.543,0,0,0-2.571,2.593c-1.136,1.358-2.208,2.64-2.915,2.7a.435.435,0,0,1-.312-.1c-.276-.232-.449-.866-.545-2a15.311,15.311,0,0,0-3.546-9.04,3.773,3.773,0,0,0-1.126-.834,1.049,1.049,0,0,0-1.07.037,1.419,1.419,0,0,0-.457,1.2,31.482,31.482,0,0,1-1.168,6.919l-.06.223-.775-.864a.33.33,0,0,0-.459-.025.343.343,0,0,0-.085.123c-.135.309-3.294,7.525-6.765,9.582a11.477,11.477,0,0,0-4.438,5.323,4.854,4.854,0,0,0-.343,1.386,1.175,1.175,0,0,0,.341,1.03.9.9,0,0,0,.727.171c1-.144,1.886-1.457,2.913-2.978,1.172-1.738,2.63-3.9,4.63-4.9,1.419-.709,2.769-2.665,3.9-5.657.208-.549.4-1.114.579-1.677l.065-.21,7.674,8.549-.116.081-11.073,7.687a.325.325,0,0,0,.176.6h.013l.249-.013c4.569-.23,15.408-.77,17.388-.8l.026.247c-1.295.262-5.785.72-10.674,1.09-3.447.261-11.811.8-15.069.147a3.128,3.128,0,0,1-.846-.263c-1.465-.8-4.189-4.131-7.669-9.391A192.034,192.034,0,0,1,365.177,92.2l-1.132-2.223c-5.736-11.265-6.617-13-10.7-14.311-1.556-.5-3.4-1.036-3.857-.684a.279.279,0,0,0-.1.263c.022.461,1.857,1.8,5.451,3.983,3.934,2.389,4.837,6.686,5.709,10.841.8,3.785,1.548,7.362,4.408,9.573,4.106,3.173,3.471,8.291,2.96,12.4a19.265,19.265,0,0,0-.241,4.433c.159,1.182.641,1.66,1.555,1.533a8.072,8.072,0,0,0,2.734-1.365c1.511-.972,3.075-1.976,3.957-1.3.194.149.354.422.012.873a15.407,15.407,0,0,1-2.813,2.282c-2.446,1.742-5.491,3.911-7.035,6.856a15.242,15.242,0,0,0-1.769,6.976l0,.28-.206-.189c-2.666-2.442-4.885-5.775-7.958-10.388-.122-.183-.2-.306-.255-.392l-.043-.059.005,0,0-.005-.006.005c-.007-.012-.059-.089-.3-.448a156.849,156.849,0,0,1-8.656-14.908c-2.809-5.477-4.757-10.034-4.963-11.612a2.572,2.572,0,0,0-.579-1.514.553.553,0,0,0-.812-.014,1.508,1.508,0,0,0-.4.811c-.116.526-.372,2.546,1.165,6.426a126.3,126.3,0,0,0,7.387,14.705,91.238,91.238,0,0,0,8.093,12.044c2.866,3.411,4.432,5.637,5.074,7.221.551,1.358.385,2.237-.539,2.854-.42.279-1.786,1.093-3.677,2.221l-.161.1c-4.044,2.408-10.154,6.048-15.229,9.353-7.9,5.145-8.72,6.53-8.505,6.9.006.011.027.047.112.065a.679.679,0,0,0,.143.014c2.752,0,20.866-12.059,31.319-19.313a.332.332,0,0,0,.136-.4,9.854,9.854,0,0,1-.37-1.706l-.04-.292.238.175a21.655,21.655,0,0,0,8.733,3.613c3.023.64,8.313.878,15.717.7,11.673-.274,24.483-1.5,24.934-1.666.094-.038.3-.264.187-1.548l-.01-.117.116-.018a36.093,36.093,0,0,0,3.817-.925l.057-.016c3.068-.853,6.885-1.91,9.521-1.417a18.66,18.66,0,0,0,5.874.229c2.244-.293,3.6-1.067,3.77-1.678a.453.453,0,0,0,.016-.155c-.031-.41-.691-.591-1.239-.671a20.781,20.781,0,0,0-2.482-.155,63.872,63.872,0,0,0-12.375,1.048c-2.433.53-3.26.479-3.41-.206a6.062,6.062,0,0,1,.014-1.5,18.051,18.051,0,0,0,.068-2.461c-.156-3.007-.277-5.942-.324-7.2l0-.1.1-.024c2.965-.683,12.887-2.94,16.109-3.292a55.154,55.154,0,0,1,6.926-.054,15.808,15.808,0,0,0,3.372-.079l.023-.006.023,0a.331.331,0,0,0,.36-.262.416.416,0,0,0,0-.059c.008-.282-.335-.561-.945-.772a13.519,13.519,0,0,0-2.137-.5,33.342,33.342,0,0,0-4.406-.4,28.261,28.261,0,0,0-8.5,1.259l-.153.047-.008-.16a10.177,10.177,0,0,1,.62-4.406c.775-1.665,6.577-.652,7.616-.455v-.006l.154.034a.339.339,0,0,0,.261-.068.323.323,0,0,0,.118-.221l.132-1.326a.325.325,0,0,0-.245-.374s-2.607-.6-8.783-2.365c-5.219-1.492-8.78-2.769-9.747-3.125l-.086-.032,0-.091.159-3.241.179.108a36.07,36.07,0,0,0,7.754,3.487c3.56,1.063,8.783.887,10.86.764l.282-.017-2.033,2.527a.323.323,0,0,0-.069.173.319.319,0,0,0,.073.239.332.332,0,0,0,.221.116l4.443.4a.331.331,0,0,0,.3-.11l7.244-8.473,1.315,2.958-3.046,2.538a.32.32,0,0,0-.127.23l-.746,7.715a.323.323,0,0,0,.063.224.324.324,0,0,0,.455.065c.057-.046,6.082-4.66,9.885-1.564a7.254,7.254,0,0,1,1.8,2.166,7.748,7.748,0,0,1,.919,4.075,5.884,5.884,0,0,1-1.181,3.389,3.449,3.449,0,0,1-1.017.861c-.4.218-.632.369-.757.451s-.151.1-.212.082l-.052-.013-.028-.049c-.078-.139.037-.457.517-1.649a16.775,16.775,0,0,0,.8-2.317,3.443,3.443,0,0,0,.09-.583,4.567,4.567,0,0,0-1.222-3.317,6.782,6.782,0,0,0-3.527-2.07,7.5,7.5,0,0,0-1.183-.18,6,6,0,0,0-4.408,1.657,2.2,2.2,0,0,0-.6.948.759.759,0,0,0,.383.922,3.414,3.414,0,0,0,2.378-.047c2.283-.569,3.543-.628,4.21-.194.61.4.745,1.309.867,2.549a3.386,3.386,0,0,1-1.1,3.1,4.415,4.415,0,0,1-.913.589l-.042.021-.046-.012c-.088-.025-.178-.047-.27-.069a23.985,23.985,0,0,0-6.867-.539,5.116,5.116,0,0,0-2.263.5c-.32.217-.4.453-.239.742a1.185,1.185,0,0,0,.631.458,13.4,13.4,0,0,0,4.958.432,12.279,12.279,0,0,0,4.114-.813l.041-.018.042.013a6.978,6.978,0,0,1,1.48.578c.437.245.633.456.617.664a.347.347,0,0,1-.038.123l-.019.034c-.514.8-3.287,1.727-5.808,2.289-.229.051-.462.1-.7.146l-.047.01-.042-.025a10.412,10.412,0,0,0-4.672-1.059,7.28,7.28,0,0,0-1.743.148c-.433.1-.94.325-.895.8a1.054,1.054,0,0,0,.573.713c.063.04.127.078.2.113,1.112.555,3.454.556,6.431,0l.061-.012.047.044a1.13,1.13,0,0,1,.3.439.651.651,0,0,1-.066.578c-.863,1.44-7.249,2.4-7.975,2.5a.325.325,0,0,0-.065.637l14.683,4.2a.338.338,0,0,0,.3-.066l18.395-15.69a.337.337,0,0,0,.112-.173.325.325,0,0,0-.233-.4l-5.642-1.492v-.1c.005-2.116-.1-20.9-5.194-29.055a27.575,27.575,0,0,0-13.706-11.125l-.092-.032.007-.1c.237-2.935.051-4.918-.483-5.176-.159-.075-.372.012-.636.261a.8.8,0,0,1-.527.181l-.124.008-.009-.124c-.157-2.2-.643-3.765-1.447-4.649-2.026-2.227-7.95-7.684-8-7.731a.33.33,0,0,0-.356-.059l-3.878,1.746-.06-.047c-1.056-.835-10.365-8.157-12.359-8.222l-.133,0A3.564,3.564,0,0,0,417.6,54.7l-.08.1-.1-.077c-2.839-2.264-4.358-3.013-4.553-2.763a.858.858,0,0,1-.088.09,1.874,1.874,0,0,0-.172.19c-.217.282-.724.94,1.533,2.681a19.32,19.32,0,0,0,2.737,1.888c.81.4,1.322.367,1.707-.115.053-.067.1-.13.153-.2a1.783,1.783,0,0,1,2.742-.539,52.732,52.732,0,0,1,5.457,3.985c2.088,1.7,4.263,3.623,6.463,5.714a34.893,34.893,0,0,0,7.932,5.632,16.75,16.75,0,0,0,4.575,1.675l.1.017,0,.1a25.313,25.313,0,0,1-.1,3.106l-.006.063-6.059,3.493a.277.277,0,0,0-.057.035.326.326,0,0,0-.06.455c.008,0,.392.506.8,1.145l.088.138-.155.049a8.713,8.713,0,0,1-5.707-.007,6.674,6.674,0,0,1-4.258-5.284.324.324,0,0,0-.323-.286h-4.263a.325.325,0,0,0-.322.272c-.057.236-.509,2.254.43,3.194l.043.043,0,.071c-.009.077-.069.111-.152.16a1.562,1.562,0,0,0-.33.243c-.4.4-.983.873-1.552,1.334-1.739,1.411-3.9,3.166-3.354,4.535.635,1.581,3.674.714,5.43.055l.4-.15-.255.342c-1.664,2.228-2.42,3.935-2.13,4.808a5.194,5.194,0,0,0,1.056,1.814,3.07,3.07,0,0,0,1.109.8,1.957,1.957,0,0,0,1.368.049,2.591,2.591,0,0,0,.919-.565A49.567,49.567,0,0,0,432.8,88.03l.182-.237.04.3c.293,2.178.756,3.5,1.27,3.63.087.02.148.036.22.056,1.1.291,3.682.975,4.419-.715a15.185,15.185,0,0,0,.756-4.41l.005-.1.1-.017c.766-.133,2.557-.6,2.618-2.088a5.327,5.327,0,0,0-.782-2.469l-.065-.121.127-.053a10.821,10.821,0,0,0,1.052-.5l.052-.028.055.021a19.081,19.081,0,0,1,8.837,7.773c3,5,2.983,11.182,2.906,12.956l-.008.187-2.38-1.109.753-3.264a.324.324,0,0,0-.258-.392l-.054-.01c-1.7-.323-10.5-1.979-16.6-2.9a37.844,37.844,0,0,0-8.527-.387,14.241,14.241,0,0,0-6.071,1.583c-.411.254-.817.529-1.268.835-1.55,1.051-2.775,1.88-4.251,1.241-1.131-.492-4.132-4.147-6.69-8.15-1.345-2.1-3.694-6.091-4.318-9.142a11.814,11.814,0,0,0-.685-2.237,8.55,8.55,0,0,0-3.484-4.164c-.192-.112-.388-.216-.582-.309l-.092-.044.024-.1a11.511,11.511,0,0,1,.933-2.574,27.405,27.405,0,0,1,5.362-6.178l.093-.086.084.1a19.726,19.726,0,0,1,2.151,2.807c2.188,3.556,14.009,7.025,14.511,7.171a.324.324,0,0,0,.374-.117l5.279-7.444a.326.326,0,0,0-.066-.444c-.383-.3-2.463-1.878-7.459-5.29-4.533-3.095-6.891-3.09-7.694-2.942l-.058.01-.045-.038a66.872,66.872,0,0,1-6.738-6.41l-.066-.078,1.761-2.265,2.335,2.334h0l.079.076a.32.32,0,0,0,.419.033c.148-.108,3.586-2.706,3.586-9.871a56.526,56.526,0,0,0-2.814-15.055c-1.7-5.425-3.733-9.739-5.719-12.147-3.963-4.8-8.044-3.648-9.2-3.18l-.067.028-.057-.045c-.888-.7-4.042-2.995-7.368-2.995a25.66,25.66,0,0,0-10.481,1.952c-5.672,2.411-10.436,7-14.161,13.625-8.184,14.561-5.033,27.559-4.646,28.993l.012.05-.024.044-2.644,4.747-.055.012a27.022,27.022,0,0,0-9.605,4.212A31.177,31.177,0,0,0,339.47,72.9a21.284,21.284,0,0,0-2.445,11.495c.436,5.541-.129,17.755-2.035,29.479-1.1,6.749-3.058,15.884-6.174,21.074l-.107-.064h0l.77.462h0l-.108-.065C332.539,130,334.524,120.781,335.633,113.974Zm69.744-61.11-.1-.092-3.225-2.981a.35.35,0,0,0-.233-.087.324.324,0,0,0-.225.1l-.027.032-.086.118h0L397.3,55.793a.318.318,0,0,0-.057.241.333.333,0,0,0,.132.213l4.643,3.672-.053.094c-1.349,2.351-5.864,10.065-7.355,10.617a1.789,1.789,0,0,1-.6.08,21.872,21.872,0,0,1-7.888-2.528c-2.139-1.079-5.013-2.858-6.558-5.2a5.765,5.765,0,0,1-.579-1.16c-.781-2.137-.461-5.091.879-8.1A16.279,16.279,0,0,1,385.3,46.9a7.969,7.969,0,0,1,1.616-.829c.61-.223,1.075-.391,1.543-.559,5.154-1.854,10.995-3.956,11.257-7.3a20.677,20.677,0,0,0-.034-4.364l-.023-.165.165.025c1.476.215,5.094,1.041,6.795,4.03a8.967,8.967,0,0,1,1,5.75,6.72,6.72,0,0,1-2.518,4.645.993.993,0,0,0-.459.682c-.124.695.328,1.743,1.342,3.115l.057.076Zm-13.882,22.22c-1.687.629-3.68,1.518-4.113,2.82-.451,1.355,1.218,2.269,3.15,3.327,1.489.816,3.16,1.734,3.921,2.906,1.509,2.32-1.7,7.693-4.034,11.617l-.107.178c-.148.25-.3.5-.467.788a12.68,12.68,0,0,1-2.43,3.256l-.145.117-.053-.18a7.409,7.409,0,0,0-1.532-3.058,2.381,2.381,0,0,0-1.084-.73.521.521,0,0,0-.636.324,1.255,1.255,0,0,0-.062.659,8.067,8.067,0,0,0,1.143,2.859c.508.806,1.05,1.163,1.676,1.059l.116-.017.024.115a13.534,13.534,0,0,1,.274,1.851c.013.194.019.356.017.5l-.005.385-.222-.315c-1.23-1.748-6.267-4.168-9.945-5.935a38.915,38.915,0,0,1-3.655-1.868c-1.506-1.043,1.515-9,1.793-9.716l.018-.05a.325.325,0,0,0-.188-.418c-.068-.027-6.991-2.689-7.911-3.346-.111-.079-.449-.319-2.782-7.5-1.78-5.481-3.758-12.206-3.919-13.325-.18-1.261.918-3.671,1.589-4.995l.12-.237.105.244a14.976,14.976,0,0,0,4.082,5.283c3.584,3.043,6.757,5.272,6.788,5.294a.321.321,0,0,0,.172.059h.017a.325.325,0,0,0,.219-.085.321.321,0,0,0,.1-.223c.073-1.33.466-7.913,1.188-9.418a1.636,1.636,0,0,1,.437-.608l-.124-.312.255.185,0-.006.092.076.006.005.039.019v.012l.031.023-.005.017a.865.865,0,0,1,.093.2,1.879,1.879,0,0,1,.066.247l.04.1-.026-.027a10.021,10.021,0,0,1-.366,3.541c-.659,2.774-.134,5.625.53,9.236a69.636,69.636,0,0,1,1.289,10A26.136,26.136,0,0,0,383.186,95.3l.069.075a.324.324,0,0,0,.559-.277s-.8-4.425-1.62-11.078c-.592-4.832.984-9.044,1.829-11.307a7.046,7.046,0,0,0,.541-1.779c0-.076.027-.091.175-.172a2.414,2.414,0,0,1,.977-.226,4.917,4.917,0,0,1,1.394.131,2.976,2.976,0,0,1,2.234,1.788,5.924,5.924,0,0,0,2.182,2.41l.183.137Zm-4.814,25.28-.188-.024a1.33,1.33,0,0,1-.9-.72,7.23,7.23,0,0,1-1.046-2.585l-.032-.281.226.14a4.468,4.468,0,0,1,.485.424,7,7,0,0,1,1.4,2.864Zm12.629-26.1a21.734,21.734,0,0,0-.38,3.823l0,.192-.175-.079a51.117,51.117,0,0,1-5.427-2.853l-.223-.14.25-.084c.14-.049.282-.1.422-.143.9-.3,1.743-.581,2.43-.871a3.323,3.323,0,0,1,.607-.186,4.7,4.7,0,0,1,2.415.2l.1.035ZM414.1,134.7c-.079,0-.155.008-.225.008a.99.99,0,0,1-.822-.267,3.652,3.652,0,0,1-.45-1.131,41.8,41.8,0,0,1-1.041-7.667c-.08-1.407-.217-4.738.216-5.272l.06-.074.142.062.03.072a5.53,5.53,0,0,1,.016,1.416,14.726,14.726,0,0,0,.04,2.751c.122.9.517,2.649.936,4.505l.017.073c.467,2.065.91,4.03,1.2,5.373l.03.141Zm-19.059-32.851c-.233.771-.477,1.5-.727,2.157-1.09,2.876-2.3,4.661-3.587,5.305-2.155,1.079-3.666,3.32-4.88,5.121-.978,1.449-1.75,2.593-2.463,2.7a.9.9,0,0,1-.1.007.2.2,0,0,1-.129-.037c-.058-.05-.121-.149-.1-.494a4.159,4.159,0,0,1,.3-1.188,10.764,10.764,0,0,1,4.163-4.995c3.126-1.852,5.954-7.558,6.747-9.263l.08-.172.714.794ZM364.7,136.114c-4.708,3.263-28.069,19.379-30.177,19.379a.274.274,0,0,1-.061-.006.225.225,0,0,1-.152-.1c-.431-.738,5.932-4.9,23.478-15.353l.026-.015c2.014-1.2,3.47-2.067,3.867-2.33,1.247-.831,1.48-1.92.779-3.642-.669-1.649-2.266-3.93-5.177-7.395a90.7,90.7,0,0,1-8.03-11.95,125.459,125.459,0,0,1-7.342-14.619c-1.471-3.714-1.241-5.569-1.136-6.05a1.8,1.8,0,0,1,.06-.224l.1-.3.131.284a3.3,3.3,0,0,1,.22.9c.214,1.643,2.188,6.285,5.028,11.825a157.427,157.427,0,0,0,8.69,14.973l.575.863.02.028.069.1c3.289,4.941,5.671,8.5,8.641,11l.041.034,0,.053a12.786,12.786,0,0,0,.395,2.4l.023.085Zm85.664-13.754a14.975,14.975,0,0,1-2.475.317c-.437.023-.862.034-1.268.034a11.055,11.055,0,0,1-3.338-.393l-.362-.129.369-.109a8.509,8.509,0,0,1,1.6-.243,23.3,23.3,0,0,1,5.472.278l.623.106Zm-4.245,4.247a18.979,18.979,0,0,1-2.61.211,5.228,5.228,0,0,1-2.193-.359c-.049-.024-.1-.05-.139-.077-.091-.059-.152-.1-.184-.113a.146.146,0,0,1-.092-.127v-.063l.054-.053a.168.168,0,0,1,.174,0,.273.273,0,0,0,.171.024,6.615,6.615,0,0,1,1.589-.131,12.9,12.9,0,0,1,3.248.449l.546.162Zm-.3-54.238a18.869,18.869,0,0,1-4.187-1.659,34.223,34.223,0,0,1-7.78-5.524c-2.2-2.095-4.389-4.028-6.5-5.747a53.442,53.442,0,0,0-5.533-4.041c-2.1-1.259-2.962-.124-3.592.7-.051.069-.1.134-.142.186-.2.243-.572.1-.913-.064a18.8,18.8,0,0,1-2.627-1.818c-1.451-1.119-1.619-1.507-1.419-1.77a1.1,1.1,0,0,1,.1-.1l.023-.025a1.319,1.319,0,0,0,.136-.147l.033-.042.054-.005h.009a42.216,42.216,0,0,1,3.772,3.092l.125.105a.325.325,0,0,0,.06.043.329.329,0,0,0,.249.03.322.322,0,0,0,.2-.155,2.962,2.962,0,0,1,2.614-1.389c1.9.063,11.761,7.91,12.18,8.244a.327.327,0,0,0,.347.051l3.864-1.739.06.056c1.38,1.276,6.015,5.587,7.745,7.491a6.962,6.962,0,0,1,1.285,4.094l.012.167Zm-4.058,12.052c-.047,1.151-1.805,1.445-2.294,1.5v0l-.116.011a.322.322,0,0,0-.3.318,15.993,15.993,0,0,1-.718,4.544c-.513,1.182-2.719.6-3.662.346l-.225-.059c-.465-.115-.748-2.324-.9-4.156a.339.339,0,0,0-.132-.256.327.327,0,0,0-.456.068,60.2,60.2,0,0,1-4.83,5.775,1.928,1.928,0,0,1-.684.426,1.284,1.284,0,0,1-.408.068,1.372,1.372,0,0,1-.517-.105,2.454,2.454,0,0,1-.868-.636,4.544,4.544,0,0,1-.92-1.579c-.462-1.383,2.74-5.134,3.106-5.557a.325.325,0,0,0-.374-.52c-.04.021-4.165,2.039-5.676,1.463a.847.847,0,0,1-.513-.479c-.371-.928,1.506-2.449,3.16-3.789l.05-.04c.6-.491,1.171-.955,1.555-1.336.833-.835.674-1.209.442-1.44a2.767,2.767,0,0,1-.329-2.251l.019-.1H429.9l.021.1a7.336,7.336,0,0,0,4.609,5.427,9.408,9.408,0,0,0,6.33-.053l.1-.033.051.091A4.74,4.74,0,0,1,441.765,84.421Zm-35.228-20.51-.083-.09c-.273-.292-.538-.568-.787-.828h0l-.064-.069c-1.608-1.68-1.759-1.87-1.626-2.031a.226.226,0,0,1,.17-.082h.015c.382,0,1.4.785,3.039,2.334l.1.094-.241.211c-.125.109-.271.236-.431.379Z" fill="#805757"/>
      <path id="패스_369" data-name="패스 369" d="M375.308,56.74c-.007-.005,0,0,0,.006l0,0Z" fill="#fff"/>
      <path id="패스_370" data-name="패스 370" d="M355.467,122.4Z" fill="#fff"/>
      <path id="패스_371" data-name="패스 371" d="M355.485,122.431l-.018-.028Z" fill="#fff"/>
    </g>
  </g>
</svg>
