<svg xmlns="http://www.w3.org/2000/svg" xmlns:xlink="http://www.w3.org/1999/xlink" width="52" height="52" viewBox="0 0 52 52">
  <defs>
    <clipPath id="clip-path">
      <rect id="사각형_193" data-name="사각형 193" width="52" height="52" transform="translate(0 0)" fill="#fff" stroke="#707070" stroke-width="1"/>
    </clipPath>
  </defs>
  <g id="asset" clip-path="url(#clip-path)">
    <path id="패스_141" data-name="패스 141" d="M48.847-839.583a10.4,10.4,0,0,1-10.4,10.4H7.246a10.4,10.4,0,0,1-10.4-10.4v-31.2a10.4,10.4,0,0,1,10.4-10.4h31.2a10.4,10.4,0,0,1,10.4,10.4Z" transform="translate(3.153 881.185)" fill="#e60019"/>
    <g id="그룹_33" data-name="그룹 33" transform="translate(0 7.8)">
      <path id="패스_139" data-name="패스 139" d="M182.516,238.938a6.513,6.513,0,0,0-4.6-4.6c-4.055-1.087-20.316-1.087-20.316-1.087s-16.261,0-20.316,1.087a6.512,6.512,0,0,0-4.6,4.6c-1.086,4.055-1.086,12.516-1.086,12.516s0,8.461,1.086,12.516a6.514,6.514,0,0,0,4.6,4.6c4.055,1.086,20.316,1.086,20.316,1.086s16.261,0,20.316-1.086a6.515,6.515,0,0,0,4.6-4.6c1.087-4.055,1.087-12.516,1.087-12.516s0-8.461-1.087-12.516" transform="translate(-131.603 -233.254)" fill="#e60019"/>
      <path id="패스_140" data-name="패스 140" d="M205.186,285.646l13.51-7.8-13.51-7.8Z" transform="translate(-184.387 -259.646)" fill="#fff"/>
    </g>
  </g>
</svg>
