<svg xmlns="http://www.w3.org/2000/svg" xmlns:xlink="http://www.w3.org/1999/xlink" width="52" height="52" viewBox="0 0 52 52">
  <defs>
    <clipPath id="clip-path">
      <rect id="사각형_198" data-name="사각형 198" width="52" height="52" transform="translate(-0.333 0)" fill="#fff" stroke="#707070" stroke-width="1"/>
    </clipPath>
  </defs>
  <g id="asset" transform="translate(0.333)" clip-path="url(#clip-path)">
    <path id="패스_155" data-name="패스 155" d="M48.847-839.583a10.4,10.4,0,0,1-10.4,10.4H7.246a10.4,10.4,0,0,1-10.4-10.4v-31.2a10.4,10.4,0,0,1,10.4-10.4h31.2a10.4,10.4,0,0,1,10.4,10.4Z" transform="translate(3.153 881.185)" fill="#fe0"/>
    <g id="그룹_40" data-name="그룹 40" transform="translate(6.067 16.467)">
      <path id="패스_146" data-name="패스 146" d="M217.241,137.829h-7.684a1.307,1.307,0,1,0,0,2.614h2.5v9.2a1.279,1.279,0,0,0,1.275,1.274h.279a1.278,1.278,0,0,0,1.273-1.274v-9.2h2.36a1.307,1.307,0,1,0,0-2.614Z" transform="translate(-208.25 -131.654)" fill="#402d33"/>
      <path id="패스_147" data-name="패스 147" d="M311.748,147.8h-3.571v-9.4a1.418,1.418,0,1,0-2.836,0v10.133a1.458,1.458,0,0,0,.023.227,1.182,1.182,0,0,0,1.164,1.413h5.221a1.186,1.186,0,1,0,0-2.373Z" transform="translate(-284.292 -130.991)" fill="#402d33"/>
      <path id="패스_148" data-name="패스 148" d="M353.466,148.232,349.484,143l3.6-3.6a1.248,1.248,0,1,0-1.764-1.764l-4.453,4.454V138.4a1.418,1.418,0,0,0-2.837,0v10.444a1.418,1.418,0,1,0,2.837,0v-3.222l.809-.809,3.765,4.943a1.268,1.268,0,1,0,2.027-1.524Z" transform="translate(-314.592 -130.991)" fill="#402d33"/>
      <path id="패스_149" data-name="패스 149" d="M259.23,148.572,255.4,138.1l-.013-.011a1.882,1.882,0,0,0-1.794-1.1,1.827,1.827,0,0,0-1.862,1.319,1.852,1.852,0,0,0-.073.172l-3.766,10.1a1.27,1.27,0,1,0,2.4.841l.651-1.859h5.241l.651,1.859a1.27,1.27,0,0,0,2.4-.841Zm-7.457-3.391,1.761-5.025c.02,0,.037,0,.057,0l1.759,5.02Z" transform="translate(-239.242 -130.991)" fill="#402d33"/>
      <path id="패스_150" data-name="패스 150" d="M272.087,109.346h-.955l-1,1.588v-1.588h-.808V112.8h.808v-1.641l1,1.587h.955l-1.068-1.7Z" transform="translate(-256.085 -109.346)" fill="#402d33"/>
      <path id="패스_151" data-name="패스 151" d="M300.431,109.346h-.955l-1,1.588v-1.588h-.808V112.8h.808v-1.641l1,1.587h.955l-1.068-1.7Z" transform="translate(-278.284 -109.346)" fill="#402d33"/>
      <path id="패스_152" data-name="패스 152" d="M284.9,112.747h.807l-.43-2.634a.931.931,0,0,0-1.833,0l-.43,2.634h.807l.09-.7h.9Zm-.91-1.317.156-1.221a.257.257,0,0,1,.43,0l.156,1.22Z" transform="translate(-266.806 -109.346)" fill="#402d33"/>
      <path id="패스_153" data-name="패스 153" d="M313.25,112.747h.807l-.43-2.634a.931.931,0,0,0-1.833,0l-.43,2.634h.808l.09-.7h.9Zm-.91-1.317.156-1.221a.257.257,0,0,1,.43,0l.156,1.22Z" transform="translate(-289.01 -109.346)" fill="#402d33"/>
      <path id="패스_154" data-name="패스 154" d="M327.907,110.356a1.262,1.262,0,0,0-1.346-1.01,1.149,1.149,0,0,0-1.268,1.01v1.433h.013l-.013.024a1.149,1.149,0,0,0,1.268,1.011,1.262,1.262,0,0,0,1.346-1.011l-.02-.025.02,0Zm-1.346,1.7a.464.464,0,0,1-.46-.375v-1.191a.464.464,0,0,1,.46-.375.606.606,0,0,1,.538.375v1.191A.606.606,0,0,1,326.561,112.056Z" transform="translate(-299.919 -109.346)" fill="#402d33"/>
    </g>
  </g>
</svg>
