<svg xmlns="http://www.w3.org/2000/svg" width="124.116" height="166" viewBox="0 0 124.116 166">
  <g id="asset" transform="translate(-538.073 -9.055)">
    <g id="_2" data-name="2" transform="translate(545.005 20.766)">
      <circle id="타원_6" data-name="타원 6" cx="58.592" cy="58.592" r="58.592" transform="translate(0 0)" fill="#ffd189"/>
      <path id="패스_372" data-name="패스 372" d="M598.558,142.1c-10.528-4.823-18.908-18.174-24.4-13.109-8.089,7.467-11.479,18.877,6.408,30.225,7.138,4.53,14.044,2.438,19.767-1.71C605.913,153.462,604.821,144.969,598.558,142.1Z" transform="translate(-541.703 -7.477)" fill="#b88774"/>
    </g>
    <g id="그룹_162" data-name="그룹 162" transform="translate(538.073 9.055)">
      <path id="패스_373" data-name="패스 373" d="M561.177,9.055h0Z" transform="translate(-535.488 -9.055)" fill="#805757"/>
      <path id="패스_374" data-name="패스 374" d="M657.651,74.389c-1.189-2.8-4.437-4.226-9.654-4.226-15.729,0-28.7,12.165-38.175,21.046-4.48,4.2-8.708,8.168-11.037,8.168a2.664,2.664,0,0,1-1.3-.309L597.36,99l.068-.123c2.726-4.912,26.908-48.055,36.24-50.156a1.9,1.9,0,0,1,1.6.242,7.583,7.583,0,0,1,3.291,7.8c-.421,1.976-1.621,3.5-2.985,3.781-1.045.229-2.094-.31-3.031-1.57l-.854.617c1.583,2.123,3.247,2.155,4.1,1.979,1.767-.369,3.291-2.21,3.794-4.584a8.622,8.622,0,0,0-3.7-8.884,2.96,2.96,0,0,0-2.456-.412c-8.356,1.883-26.856,32.954-34.423,46.224l-.56.985.306-1.091c4.679-16.649,14.945-56.49,9.224-66.84a4.716,4.716,0,0,0-2.851-2.438c-4.413-1.224-7.869-.872-9.476.972a3.519,3.519,0,0,0-.506,3.828c.8,1.886,3.219,3.968,7.585,4.206l.05-1.053c-3.882-.211-6.017-2.044-6.67-3.563a2.469,2.469,0,0,1,.335-2.723c1.305-1.5,4.447-1.739,8.4-.656a3.673,3.673,0,0,1,2.209,1.937c6.152,11.129-7.633,60.283-10.459,70.024l-.128.439-.138-.436a30.013,30.013,0,0,1-.675-6.582,100.3,100.3,0,0,0-6.714-33.965c-9.983-26.286-18.209-41.719-24.518-46.037,5.923,4.827,13.175,20.166,18.635,33.378l.157.377-.354-.2c-2.118-1.216-7.391-3.849-10.548-2.019-1.851,1.072-2.671,3.428-2.434,7,.506,7.571,8.252,21.2,15.085,33.23,5.083,8.947,9.88,17.392,9.843,20.369a1.031,1.031,0,0,0,.023.18l.02.121.031.152.119.23a2.187,2.187,0,0,0,1.8.99,8.5,8.5,0,0,0,1.086.062c5.051,0,15.891-3.372,25.775-8.015,11.691-5.5,19.1-11.279,20.321-15.865.842-3.167-.873-5.836-5.1-7.936l-.314-.156.336-.1A30.887,30.887,0,0,1,648,71.232c4.76,0,7.684,1.2,8.69,3.577,2.492,5.881-6.4,19.724-25.03,38.981-2.87,2.96-6.078,4.305-9.525,4.007l-.146-.013.02-.145a10.416,10.416,0,0,0-.713-6.37c-1.11-2.109-3.282-3.606-6.839-4.711-2.613-.825-4.328-.565-4.972.743-1,2.036,1.408,6.04,5.265,8.747a15.98,15.98,0,0,0,5.9,2.569l.135.028-.026.135c-.284,1.528-.762,3.278-1.147,4.631-.579,1.017-14.017,24.2-24.63,25.33a6.827,6.827,0,0,1-5.948-2.415l-.037-.039v-.054c-.152-15.7,3.179-38.877,3.213-39.1l.033-.23-.14-.7c-.6-.857-1.132-1.369-1.433-1.369-1.26,0-2.708,2.239-4.542,5.077-.71,1.1-1.514,2.344-2.4,3.611l-.857,1.223c-3.989,5.706-9.313,13.3-16.251,18l-.21.139-.1.067-.138.091c-.66.431-1.331.845-2.02,1.219.73-.356,1.44-.752,2.139-1.165.082-.049.162-.1.244-.149,8.048-4.859,13.989-13.3,18.051-19.085l.182-.26c2.533-3.6,4.72-6.716,5.9-6.716l.062.016a.727.727,0,0,1,.36.221l.048.049-.01.068c-.49,3.463-4.73,34.217-2.614,47.327.867,5.387,3.972,8.739,8.3,8.964l.123.006c.106,0,.214.008.321.008,6,0,13.754-6.32,17.552-20.438,1.339-4.982,2.673-9.213,3.851-12.946A104.466,104.466,0,0,0,621.8,118.92l.024-.127.127.013c3.751.38,7.373-1.1,10.465-4.288C651.908,94.369,660.4,80.868,657.651,74.389Zm-62.275,26.336c-1.3-4.131-5.281-11.139-9.494-18.558l-.032-.057C579.084,70.2,571.418,56.7,570.931,49.393c-.21-3.141.433-5.167,1.91-6.022,2.837-1.627,8.459,1.289,10.546,2.645l.237-.356.1.242c1.389,3.407,2.813,7.028,4.233,10.765a103.422,103.422,0,0,1,6.643,34.3l.006.136c.162,3.747.289,6.706,1.408,8.19l.042.057-.544,1.808Zm47.585-20.081c-2.631,9.9-35.357,23.11-44.979,23.11a7.54,7.54,0,0,1-1.042-.064c-.723-.1-1.086-.309-1.081-.613a5.341,5.341,0,0,0-.122-.937l-.026-.137,1.1-2.007.121.064a3.806,3.806,0,0,0,1.849.433c2.712,0,6.505-3.558,11.756-8.483,7.085-6.641,15.9-14.908,26.363-18.719l.051-.019.05.021C641.735,75.251,643.739,77.724,642.961,80.644Zm-24.879,47.812c-.075.239-.141.456-.207.675s-.138.455-.219.71c-1.3,4.124-2.578,8.219-3.868,12.993-3.651,13.581-11.085,19.658-16.6,19.658-.11,0-.219,0-.328-.008-3.8-.195-6.535-3.211-7.32-8.068a49.849,49.849,0,0,1-.52-6.325l-.008-.307.236.195a7.62,7.62,0,0,0,4.944,1.856,8.62,8.62,0,0,0,.9-.046c8.364-.888,17.838-13.82,22.742-21.45l.56-.871Zm2.884-10.966-.02.147-.146-.03a14.854,14.854,0,0,1-5.451-2.417c-3.949-2.782-5.528-6.2-4.922-7.424.139-.281.5-.617,1.45-.617a8.07,8.07,0,0,1,2.264.412c3.276,1.018,5.251,2.353,6.219,4.2A9.413,9.413,0,0,1,620.966,117.49Z" transform="translate(-535.156 -8.845)" fill="#805757"/>
      <path id="패스_375" data-name="패스 375" d="M569.2,132.95l.095-.22.317-.745c-8.359-3.562-14.018-9.166-16.823-16.659-5.688-15.2,1.995-33.7,3.592-37.258l.061-.135.131.068c6.331,3.326,10.346,4.392,11.936,3.163.908-.69,1.053-1.984.433-3.845-.9-2.7-3.155-4.286-6.361-4.46a16.73,16.73,0,0,0-8.641,2.294l-.07.039-.068-.039c-2.743-1.571-5.94-3.651-9.9-6.292-8.813-5.872-4.046-14.055,2.548-25.381,3.547-6.078,8.587-15.3,11.408-25.167,1.32-4.611,2.741-7.551,4.242-8.785-2.044,1.031-3.8,4.1-5.252,9.166-2.545,8.9-6.937,17.062-11.3,24.553-6.6,11.322-11.8,20.263-2.226,26.653,2.819,1.879,6.13,4.05,9.314,5.908l.195.112-.187.123a20.411,20.411,0,0,0-7.288,8.377c-3.659,7.979-9.569,33.272-1.8,45.638a13.4,13.4,0,0,0,7.173,5.791,14.342,14.342,0,0,1-6.281-5.677c-7.245-11.534-1.982-37.119,1.857-45.5a19.157,19.157,0,0,1,7.463-8.192l.07-.043.071.041c.192.109.384.22.573.33.307.179.612.356.917.523l.115.061-.053.118c-1.639,3.628-9.514,22.523-3.66,38.161,2.9,7.737,8.7,13.526,17.254,17.21ZM555.153,76.034l-.229-.127.232-.119a14.625,14.625,0,0,1,7.372-1.818c1.942.1,4.461.826,5.422,3.706.457,1.381.432,2.279-.072,2.668a1.93,1.93,0,0,1-1.167.3C564.633,80.642,560.576,79.036,555.153,76.034Z" transform="translate(-538.073 -9.002)" fill="#805757"/>
    </g>
  </g>
</svg>
