<svg xmlns="http://www.w3.org/2000/svg" xmlns:xlink="http://www.w3.org/1999/xlink" width="52" height="52" viewBox="0 0 52 52">
  <defs>
    <clipPath id="clip-path">
      <rect id="사각형_191" data-name="사각형 191" width="52" height="52" transform="translate(0 0)" fill="#fff" stroke="#707070" stroke-width="1"/>
    </clipPath>
  </defs>
  <g id="asset" clip-path="url(#clip-path)">
    <g id="그룹_32" data-name="그룹 32" transform="translate(0 0)">
      <path id="패스_133" data-name="패스 133" d="M48.847-839.583a10.4,10.4,0,0,1-10.4,10.4H7.246a10.4,10.4,0,0,1-10.4-10.4v-31.2a10.4,10.4,0,0,1,10.4-10.4h31.2a10.4,10.4,0,0,1,10.4,10.4Z" transform="translate(3.153 881.185)" fill="#3fa636"/>
      <path id="패스_134" data-name="패스 134" d="M52.329-862.042H21.867a7.045,7.045,0,0,0-7.033,7.058v16.743a7.045,7.045,0,0,0,7.033,7.058H32.359l3.581,5.831a1.32,1.32,0,0,0,.117.166,1.2,1.2,0,0,0,1.04.6,1.2,1.2,0,0,0,1.037-.6.838.838,0,0,0,.121-.174l3.581-5.83H52.329a7.046,7.046,0,0,0,7.032-7.058v-16.743A7.046,7.046,0,0,0,52.329-862.042Z" transform="translate(-11.098 866.018)" fill="#fff"/>
      <g id="그룹_31" data-name="그룹 31" transform="translate(8.581 12.74)">
        <g id="그룹_30" data-name="그룹 30" transform="translate(0 0)">
          <path id="패스_135" data-name="패스 135" d="M43.206-815.372a3.62,3.62,0,0,0-2.317,1.073v-4.323H38.162v11.358h2.755v-.89a2.613,2.613,0,0,0,2.289,1.173,4.017,4.017,0,0,0,3.842-4.238S46.906-815.372,43.206-815.372Zm-.6,5.994a1.753,1.753,0,0,1-1.752-1.752,1.753,1.753,0,0,1,1.752-1.752,1.752,1.752,0,0,1,1.752,1.752A1.752,1.752,0,0,1,42.605-809.378Z" transform="translate(-38.162 818.876)" fill="#f15d19"/>
          <path id="패스_136" data-name="패스 136" d="M85.16-819.845v2.628s1.244-.057,1.244,2.261v6.723h2.628v-7.345S89.144-819.845,85.16-819.845Z" transform="translate(-75.399 819.845)" fill="#f15d19"/>
          <path id="패스_137" data-name="패스 137" d="M117.55-802.8s-4.5,0-4.5,4.207c0,0-.146,4.15,4.5,4.15,0,0,4.608-.007,4.608-4.15C122.158-798.6,122.308-802.8,117.55-802.8Zm0,5.959A1.752,1.752,0,0,1,115.8-798.6a1.752,1.752,0,0,1,1.752-1.752A1.752,1.752,0,0,1,119.3-798.6,1.752,1.752,0,0,1,117.551-796.846Z" transform="translate(-97.492 806.344)" fill="#f15d19"/>
          <path id="패스_138" data-name="패스 138" d="M169.694-802.533v.762a2.98,2.98,0,0,0-2.288-1.038s-3.857-.163-3.857,4.178c0,0-.043,4.044,3.751,4.044a3.117,3.117,0,0,0,2.394-1.039v.636A1.733,1.733,0,0,1,167.957-793H167.3v2.415h1.059a3.958,3.958,0,0,0,3.983-4.259v-7.692Zm-1.629,5.683a1.752,1.752,0,0,1-1.751-1.752,1.752,1.752,0,0,1,1.751-1.752,1.752,1.752,0,0,1,1.752,1.752A1.752,1.752,0,0,1,168.065-796.849Z" transform="translate(-137.507 806.347)" fill="#f15d19"/>
        </g>
      </g>
    </g>
  </g>
</svg>
