<svg xmlns="http://www.w3.org/2000/svg" xmlns:xlink="http://www.w3.org/1999/xlink" width="56" height="79" viewBox="0 0 56 79">
  <defs>
    <clipPath id="clip-path">
      <rect id="사각형_314" data-name="사각형 314" width="56" height="56" transform="translate(8792 7113)" fill="#fff" stroke="#707070" stroke-width="1"/>
    </clipPath>
  </defs>
  <g id="자가용_아이콘" data-name="자가용 아이콘" transform="translate(-8792 -7113)">
    <text id="주차" transform="translate(8810 7188)" fill="#413939" font-size="12" font-family="AppleSDGothicNeoR00" letter-spacing="0.007em"><tspan x="0" y="0">주차</tspan></text>
    <g id="마스크_그룹_51" data-name="마스크 그룹 51" clip-path="url(#clip-path)">
      <g id="그룹_230" data-name="그룹 230" transform="translate(8416.634 6450.879)">
        <path id="패스_467" data-name="패스 467" d="M385.939,733.206a1.381,1.381,0,0,0,1.381,1.381h3.348a1.38,1.38,0,0,0,1.381-1.381v-4.73h-6.111Z" transform="translate(-3.725 -23.636)"/>
        <path id="패스_468" data-name="패스 468" d="M441.747,733.206a1.381,1.381,0,0,0,1.381,1.381h3.348a1.381,1.381,0,0,0,1.381-1.381v-4.73h-6.111Z" transform="translate(-23.388 -23.636)"/>
        <path id="패스_469" data-name="패스 469" d="M428.616,691.782h-.136a2.75,2.75,0,0,1-2.558-1.74l-4-9.727a9.99,9.99,0,0,0-9.529-6.991H394.73a9.989,9.989,0,0,0-9.426,6.683c-.016.045-.033.091-.052.135l-4.543,9.937a2.751,2.751,0,0,1-2.527,1.666,2.751,2.751,0,0,0-2.751,2.75l-.065,9.9a2.75,2.75,0,0,0,2.751,2.75l50.435.038a2.751,2.751,0,0,0,2.75-2.751l.065-9.9A2.75,2.75,0,0,0,428.616,691.782Zm-38.68-10.657a3.76,3.76,0,0,1,3.442-2.25l20.273-.008a3.759,3.759,0,0,1,3.509,2.406l2.614,6.771L386.924,688Zm-4.666,19.266a3.011,3.011,0,1,1,3.011-3.011A3.011,3.011,0,0,1,385.269,700.392Zm36.145,0a3.011,3.011,0,1,1,3.011-3.011A3.011,3.011,0,0,1,421.414,700.392Z" transform="translate(0 -4.204)"/>
      </g>
    </g>
  </g>
</svg>
