<svg xmlns="http://www.w3.org/2000/svg" xmlns:xlink="http://www.w3.org/1999/xlink" width="56" height="79" viewBox="0 0 56 79">
  <defs>
    <clipPath id="clip-path">
      <rect id="사각형_312" data-name="사각형 312" width="56" height="56" transform="translate(8664 7099)" fill="#fff" stroke="#707070" stroke-width="1"/>
    </clipPath>
  </defs>
  <g id="전철_아이콘" data-name="전철 아이콘" transform="translate(-8679 -7113)">
    <text id="지하철" transform="translate(8692 7188)" fill="#413939" font-size="12" font-family="AppleSDGothicNeoR00" letter-spacing="0.007em"><tspan x="0" y="0">지하철</tspan></text>
    <g id="마스크_그룹_50" data-name="마스크 그룹 50" transform="translate(15 14)" clip-path="url(#clip-path)">
      <g id="그룹_229" data-name="그룹 229" transform="translate(8670 7099)">
        <path id="패스_466" data-name="패스 466" d="M591.085,647.008h-23.2a10.631,10.631,0,0,0-10.631,10.631v26.669a10.632,10.632,0,0,0,10.631,10.631h23.2a10.631,10.631,0,0,0,10.631-10.631V657.639A10.631,10.631,0,0,0,591.085,647.008Zm-25.137,40.277a3.1,3.1,0,1,1,3.1-3.1A3.1,3.1,0,0,1,565.949,687.285Zm11.6-18.795a2.632,2.632,0,0,1-2.632,2.633H564.53a2.632,2.632,0,0,1-2.632-2.633v-6.6a2.591,2.591,0,0,1,2.591-2.591h10.467a2.591,2.591,0,0,1,2.591,2.591ZM576.386,652.4a3.1,3.1,0,1,1,3.1,3.1A3.1,3.1,0,0,1,576.386,652.4Zm16.635,34.889a3.1,3.1,0,1,1,3.1-3.1A3.1,3.1,0,0,1,593.021,687.285Zm4.032-18.795a2.633,2.633,0,0,1-2.633,2.633H584.036a2.633,2.633,0,0,1-2.633-2.633v-6.6a2.591,2.591,0,0,1,2.591-2.591h10.467a2.591,2.591,0,0,1,2.591,2.591Z" transform="translate(-557.254 -647.008)"/>
        <rect id="사각형_311" data-name="사각형 311" width="20.424" height="4.252" transform="translate(12.468 51.692)"/>
      </g>
    </g>
  </g>
</svg>
